<svg id="Layer_1" data-name="Layer 1" xmlns="http://www.w3.org/2000/svg" viewBox="0 0 382.32 276.85"><title>API</title><path d="M140.17,51.4A99.55,99.55,0,0,1,165.74,22C186.56,6,210.07-1.51,236.4.25c45.7,3.07,85,37.58,93.89,84.48a96.27,96.27,0,0,1,1.25,29.09c-.23,2,.31,3,2.23,3.92C362.6,131.53,379,154.42,382,186.16c3.8,40.79-21.87,77.44-61.06,87.77a85.39,85.39,0,0,1-21.46,2.74q-108.1.3-216.21.1c-41.32,0-75.24-29.08-82.12-70.08-5.58-33.3,10.58-67.83,39.85-84.93,1.74-1,2.15-2,1.89-3.94-3-22,3.48-41,19.15-56.68,13-13,29-19.12,47.42-18.73a59.59,59.59,0,0,1,26.84,6.9Zm51.11,211.81h107.5c20.88,0,38.42-7.64,52.44-23.22,23.44-26.07,23.48-66.87,0-93a68.3,68.3,0,0,0-25-17.76c-6.37-2.64-9-7.3-8.36-14,.22-2.15.48-4.31.56-6.47.93-22.69-5.48-43.07-19.42-61a89,89,0,0,0-148,12c-1.76,3.25-4.19,5.54-7.93,6.27-3.17.61-5.87-.45-8.48-2.12A48.32,48.32,0,0,0,99.71,56.6C70.71,61.44,51.8,87.94,56.42,117c1.26,8-.71,12-7.76,16.07C8.43,156.09,1.52,211.67,35,243.84,48.59,257,65,263.22,83.84,263.21Q137.52,263.18,191.28,263.21Z" transform="translate(-0.04 0)"/><path d="M174,198.87c-3,0-5.9.09-8.8-.08-.6,0-1.45-.93-1.66-1.6-1.77-5.53-3.41-11.1-5.12-16.77-9.69,0-19.26,0-28.83.08-.62,0-1.56,1.05-1.79,1.78-1.69,5.47-3.24,11-4.84,16.51H113c.21-.85.36-1.62.59-2.36q11.19-36.09,22.36-72.18c.54-1.74,1.32-2.35,3.13-2.26,3.16.15,6.33,0,9.49.11a2.78,2.78,0,0,1,2.1,1.41q11.73,37.21,23.29,74.5A4.1,4.1,0,0,1,174,198.87ZM156,172.28c-4.18-14.11-8.26-27.93-12.34-41.74h-.83c-4.08,13.87-8.17,27.73-12.3,41.77Z" transform="translate(-0.04 0)"/><path d="M197.92,170.26v28.47h-9.23V122.35a2,2,0,0,1,.67-.26c9.42,0,18.85-.35,28.24.19,13.59.78,22.6,11.59,21.67,25.19S229.08,169.7,215,170.21c-4.66.16-9.33,0-14,0Zm.13-8.25c5.64,0,11,.27,16.41,0,9.31-.57,14.29-5.84,14.82-15.14.43-7.43-3.64-14.42-10.44-15.62s-13.78-.92-20.79-1.29Z" transform="translate(-0.04 0)"/><path d="M262.38,122.17v76.54h-9.17V122.17Z" transform="translate(-0.04 0)"/></svg>