<svg id="Layer_1" data-name="Layer 1" xmlns="http://www.w3.org/2000/svg" viewBox="0 0 497.52 706.48"><defs><style>.cls-1{fill-rule:evenodd;}</style></defs><title>1.0create my return</title><g id="Page-1"><g id="create-new-return"><path d="M373.64,0c38,.42,71.12,28.3,77.74,65.76,4,22.71-.76,43.46-14,62.32Q303.05,319.38,168.87,510.77c-10.5,15-22,28.87-36.73,39.86A132.79,132.79,0,0,1,108.23,565c-25.62,11.75-51.17,23.75-76.81,35.49-5.74,2.64-11.76,4.33-18.14,2.2C4.78,599.88-.61,591.71.06,582c.81-11.88,2-23.75,3-35.61,1.3-14.61,3-29.18,3.89-43.8C8.76,473.52,17.48,447,34.68,423.36c8-11,15.61-22.2,23.42-33.32q124.5-177.27,249-354.6c12.7-18.1,29.75-29.54,51.49-33.7C363.51.77,368.6.56,373.64,0ZM262,142.69,78.78,403.77l89.93,63.93L352,206.7Zm14.27-20.32,89.84,63.89c.67-.89,1.18-1.54,1.65-2.2,16.51-23.51,33.14-46.94,49.47-70.57,13.53-19.58,14.53-40.09,3.14-61C410,33.33,386.6,22.27,365.16,25.73c-16.1,2.62-28.61,10.73-37.92,24Q303.93,83,280.61,116.19ZM154.18,487.77,64.51,424.05c-4,5.73-7.8,11.32-11.78,16.75-6.22,8.47-10.35,18-14.12,27.7-5.46,14.06-6.3,28.85-7.62,43.61q-2.22,24.87-4.5,49.76c-.41,4.58-.8,9.17-1.22,14,1.12-.48,1.89-.79,2.64-1.14,23.17-10.72,46.32-21.5,69.52-32.15C122.7,531,140,511.26,154.18,487.77Z" transform="translate(0 0)"/><path id="Path" class="cls-1" d="M254.2,705.52,25,704.52c-4.73,0-8.72-1.37-11.5-5.3-5.09-7.17-.43-17.2,8.43-18.26a31.33,31.33,0,0,1,3.75-.13q228.86,1,457.69,1.94c3.22,0,6.32.32,9,2.21a11.63,11.63,0,0,1,4.78,12.69,12.3,12.3,0,0,1-11,8.77c-1.16.08-2.33,0-3.5,0Z" transform="translate(0 0)"/></g></g></svg>