<svg id="Layer_1" data-name="Layer 1" xmlns="http://www.w3.org/2000/svg" viewBox="0 0 553.56 628.76"><title>1.0Draft-return-01</title><path d="M463.36,643.22c0,5.47.13,10.55,0,15.61-.29,9-.1,18-1.31,26.91-2.24,16.55-11,29.55-24,39.86a72.47,72.47,0,0,1-46.42,16.32q-54,0-108,0-97.6,0-195.23,0c-22.89,0-41.77-8.82-56.77-25.83-10.92-12.37-15.23-27.29-15.25-43.57q0-56.25,0-112.49-.12-136.11-.29-272.22c0-10.3.63-20.58,4.57-30.19,9.74-23.74,27-39,52.45-43.58,9.6-1.71,19.55-1.52,29.36-1.93,6.39-.27,12.81-.05,19.55-.05,0-1.1,0-2,0-2.87.65-11.13.18-22.47,2.2-33.35,5.9-31.79,25.19-53.78,57.92-60.87a73.81,73.81,0,0,1,15.34-1.56q103-.24,206-.24c15.68,0,29,5.72,40.39,16.36q53.7,50.18,107.49,100.25c9,8.35,15.4,18.12,17.35,30.42a60.88,60.88,0,0,1,.7,9.45q.15,144,.26,288c0,19.6-4.95,37.61-17.12,53.16-14.46,18.49-33.67,29-56.93,31.54-9.49,1-19.13.64-28.71.89C465.83,643.25,464.76,643.22,463.36,643.22ZM149.88,378.37h-.12v9.74q0,60.24,0,120.49c0,18.74,0,37.49.31,56.24A60.71,60.71,0,0,0,152,578.9c5.22,20.28,19.29,32.27,38.12,39.39,8.87,3.35,18.28,3.43,27.63,3.42q118.48-.06,237-.18c14.16,0,28.39.38,42.46-.8,19.48-1.64,34.43-11.69,44.7-28.28,6.33-10.23,7.88-21.75,7.88-33.59q-.06-136.12,0-272.23c0-6.42,0-12.83,0-19.25,0-4.07-.58-4.61-4.66-4.66-6.67-.08-13.34-.05-20-.07-22.17-.09-44.34.09-66.49-.37-14.74-.31-26.79-6.74-35.81-18.48a44.32,44.32,0,0,1-9.21-27.68c0-25,.1-50,.11-75,0-4.62-.63-5.2-5.16-5.24h-1q-102.37,0-204.74,0a48.37,48.37,0,0,0-10.43.8C170.67,141.49,157.43,155,152,176.3c-2.24,8.72-2.08,17.67-2.08,26.58Q149.88,290.63,149.88,378.37ZM439.53,640.79h-3.42q-108.36,0-216.73-.07c-11.33,0-22.65-.26-33.79-2.83-31.2-7.18-50.66-26.89-60.36-56.81-3.06-9.45-3.16-19.35-3.14-29.2q.18-158.11.38-316.22v-3.31a17.92,17.92,0,0,0-2.88-.44c-12.24.12-24.52-.22-36.72.57-14.64.94-26.18,7.94-34.56,20.13-6.77,9.87-8.42,20.93-8.4,32.56q.18,151.74.26,303.47c0,28.33-.3,56.67.44,85,.48,18.24,10,31.39,26.81,38.82,9.62,4.25,19.93,5,30.33,5q140.61,0,281.22-.11c6.57,0,13.16-.33,19.71-.89a45,45,0,0,0,40.9-42.82c.35-9.65.27-19.33.34-29A35.87,35.87,0,0,0,439.53,640.79Zm-4.4-488.15c-.13.87-.23,1.19-.23,1.51.05,22.07-.16,44.14.29,66.21.19,9.43,5.52,16.18,14.51,19.26a38.56,38.56,0,0,0,12,1.76c21.91.17,43.81.09,65.72.08.68,0,1.36-.12,2.76-.25Z" transform="translate(-16.08 -113.18)"/><path d="M340.38,414.37q-50.73,0-101.46,0a42,42,0,0,1-9.15-1c-6.72-1.52-10.28-6.52-9.69-13.08.62-6.92,5-11.31,11.94-11.8,2.24-.15,4.5-.14,6.74-.14H443.93a26.53,26.53,0,0,1,4,.15c12,1.79,13.89,13.08,9.2,20.52a10.44,10.44,0,0,1-8.07,4.86,87.94,87.94,0,0,1-9.47.49Q390,414.4,340.38,414.37Z" transform="translate(-16.08 -113.18)"/><path d="M339.75,461.79q51,0,102,0a46.27,46.27,0,0,1,7.45.54,12.23,12.23,0,0,1,10.22,12.09c.08,6.49-3.86,11.68-9.93,12.93a25,25,0,0,1-5,.49q-103.62,0-207.24,0a35.8,35.8,0,0,1-8.88-1c-5.43-1.42-8.55-6.44-8.25-12.49.32-6.38,3.77-10.89,9.4-11.89a44.11,44.11,0,0,1,7.7-.61Q288.5,461.76,339.75,461.79Z" transform="translate(-16.08 -113.18)"/><path d="M297.22,335.45q-27.86,0-55.71,0a43.15,43.15,0,0,1-7.2-.52,12,12,0,0,1-9.94-12.26c0-6.9,3.88-11.77,10.21-12.78a37.12,37.12,0,0,1,6-.45q56.34,0,112.68,0a44,44,0,0,1,5.73.38c7.22,1,11.1,5.57,11.08,13,0,6.81-4.23,11.57-11.11,12.55a16.74,16.74,0,0,1-2.24.15H297.22Z" transform="translate(-16.08 -113.18)"/></svg>