<?xml version="1.0" encoding="UTF-8"?>
<svg width="659px" height="572px" viewBox="0 0 659 572" version="1.1" xmlns="http://www.w3.org/2000/svg" xmlns:xlink="http://www.w3.org/1999/xlink">
    <title>Slice 1</title>
    <desc>Created with Sketch.</desc>
    <g id="Page-1" stroke="none" stroke-width="1" fill="none" fill-rule="evenodd">
        <g id="Group-7" transform="translate(0.000000, 7.000000)">
            <g id="Group-3" transform="translate(0.000000, 128.000000)">
                <path d="M170.001004,300.455939 C160.689727,301.637451 151.964293,304.400717 142.831792,305.131337 C142.55365,305.153589 141.613802,305.978115 141.335785,306 C140.353274,306.077341 140.033175,305.895397 139.05215,305.968242 C137.316581,306.097113 135.246712,305.966428 133.491726,305.968242 C102.757745,306 73.2899037,305.983385 42.5336186,305.968242 C30.4822591,305.968242 19.9049051,302.081011 11.4361977,293.982613 C1.75280073,284.715505 -1.52959106,273.453968 0.640472536,260.83317 C2.00529241,252.98884 5.11025763,245.690754 9.31390284,238.773769 C13.7555357,231.319508 19.4142031,224.552635 26.0875391,218.715149 C31.2761002,214.379273 36.7113793,210.306198 42.3698402,206.513563 C49.4123108,201.635469 57.2463768,197.964195 65.2578695,194.693077 C70.3349994,192.609725 75.589556,190.882067 80.8304643,189.154408 C94.0555689,184.835263 107.717416,182.129445 121.556689,180.26205 C138.226877,178.070712 155.039644,176.981142 171.868818,177.000247 C173.578156,177.002187 176.142394,177.030841 179.561534,177.086207 C199.620686,178.057147 214.615507,179.240677 224.545997,180.636799 C239.223981,182.63946 253.644836,186.027549 267.585592,190.748681 C276.972856,193.936089 286.016172,197.940567 294.595377,202.708903 C303.399482,207.55492 311.499755,213.431555 318.698096,220.195091 C327.992519,229.08745 335.294306,239.135815 339.723146,250.949949 C343.005538,259.715274 316.276135,245.171413 313.846755,254.228916 C312.209293,260.30987 284.579157,246.504895 279.829686,250.949949 C271.799048,258.623896 259.152347,255.905952 256.785713,263.727261 C256.511816,264.63244 247.093077,269.28418 245.778603,269.28418 C240.547695,272.835681 235.204234,274.612926 229.748217,274.615914 C185.79078,274.63999 192.910619,297.548927 170.001004,300.455939 Z M208.757888,263.727261 C212.736848,263.823146 265.709526,245.25004 269.458256,244.007119 C277.161656,241.277371 311.119888,244.268872 313.846755,236.985322 C315.85782,231.601829 308.593023,252.215754 307.120514,246.724591 C305.014009,238.877357 321.891976,245.104042 316.73138,238.669184 C309.18804,229.31525 299.696653,221.466483 288.821893,215.589832 C282.071344,211.920949 275.076442,208.654703 267.879552,205.810874 C256.542602,201.30774 244.646643,198.394321 232.532535,196.133253 C217.650649,193.443036 202.566897,191.827382 187.416516,191.300776 C171.751517,190.650412 156.056784,191.014414 140.446226,192.390142 C121.221812,194.100193 102.365525,197.203618 84.102331,203.207797 C70.9656478,207.527259 58.6265733,213.17676 47.4123315,220.871989 C41.2642143,225.035996 35.6792371,229.873866 30.778441,235.28075 C25.3247064,241.379931 20.8117411,248.055463 17.9621647,255.630355 C15.2352975,262.958239 14.1309162,270.197455 17.4917801,277.67101 C19.695708,282.633272 23.6762529,286.736354 28.7605592,289.286689 C33.614383,291.820097 38.8840541,292.79546 44.4400462,292.789126 C87.0518924,292.746903 129.661466,292.738458 172.268768,292.763792 L208.757888,263.727261 Z" id="Shape-Copy" fill="#000000" fill-rule="nonzero"></path>
                <path d="M172,154 C216.735065,154 250.290222,119.525926 250.290222,77 C250.290222,34.4740743 216.735065,0 172,0 C127.264935,0 91,34.4740743 91,77 C91,119.525926 127.264935,154 172,154 Z" id="Oval" stroke="#000000" stroke-width="14"></path>
            </g>
            <path d="M371.513871,565 C305.97461,565 240.421476,564.983177 174.854468,564.949531 C156.47878,564.949531 140.350628,558.772149 127.437701,545.902601 C112.672638,531.175802 107.667708,513.279561 110.976581,493.223255 C113.057632,480.757458 117.792025,469.159725 124.201665,458.167618 C130.974184,446.321698 139.602415,435.568141 149.777793,426.291516 C157.689214,419.40117 165.976826,412.928455 174.604742,406.901398 C185.342969,399.149388 197.288207,393.315194 209.503982,388.116906 C217.245495,384.806152 225.257545,382.060648 233.248784,379.315145 C253.414176,372.451387 274.245506,368.151444 295.347372,365.183878 C320.765763,361.701519 346.401556,359.970031 372.062366,360.000392 C374.668733,360.003476 378.578636,360.049011 383.792077,360.136996 C414.377897,361.679962 437.24172,363.560766 452.383547,365.77941 C474.764262,368.961933 496.752912,374.346105 518.009518,381.848679 C532.323043,386.91394 546.112122,393.277644 559.193534,400.855234 C572.61787,408.556269 584.969014,417.895107 595.94491,428.643362 C610.116874,442.77463 621.250501,458.742962 628.003515,477.51736 C633.008444,491.446753 634.704502,505.456895 631.000229,519.8506 C628.503457,529.514132 623.362614,538.344161 616.120708,545.408007 C602.458603,559.014399 585.633298,564.91925 566.310732,564.91925 C480.138998,564.973083 415.206711,565 371.513871,565 Z M372.661808,543.965716 L567.551868,543.965716 C573.618912,544.11809 579.662771,543.183119 585.378763,541.207934 C597.124764,536.869962 605.565253,529.341418 609.723129,517.766785 C612.789563,509.211621 612.498512,500.465224 610.253259,491.738957 C607.041299,479.268548 600.814879,468.227354 592.946098,458.001417 C581.444154,443.136638 566.971864,430.66379 550.390234,421.324926 C540.097123,415.494532 529.431427,410.303985 518.457743,405.784723 C501.171372,398.62858 483.032636,393.998726 464.561271,390.405558 C441.869648,386.130406 418.870224,383.562894 395.769206,382.72604 C371.883509,381.692515 347.952472,382.270968 324.149786,384.457203 C294.836757,387.174725 266.085042,392.106525 238.237665,401.648049 C218.207096,408.51231 199.392705,417.4902 182.293438,429.719052 C172.918904,436.336273 164.403035,444.024361 156.930393,452.616696 C148.61464,462.309193 141.733354,472.917596 137.388374,484.955215 C133.230497,496.600303 131.546557,508.104482 136.67114,519.981062 C140.031648,527.866828 146.101109,534.38723 153.853564,538.440086 C161.254584,542.466046 169.28968,544.01604 177.761353,544.005975 C242.735101,543.938876 307.705384,543.925456 372.672203,543.965716 L372.661808,543.965716 Z" id="Shape-Copy" fill="#000000" fill-rule="nonzero"></path>
            <circle id="Oval" stroke="#000000" stroke-width="20" cx="372.5" cy="196.5" r="123.5"></circle>
            <g id="Group-4" transform="translate(506.000000, 0.000000)" stroke="#000000" stroke-width="14">
                <circle id="Oval" cx="73" cy="73" r="73"></circle>
                <path d="M73.5,41 L73.5,105" id="Line-2" stroke-linecap="square"></path>
                <path d="M72.3731564,42.2238749 L72.3643129,105.840494" id="Line-2-Copy-2" stroke-linecap="square" transform="translate(72.368735, 74.032185) rotate(-89.601746) translate(-72.368735, -74.032185) "></path>
            </g>
        </g>
    </g>
</svg>