<svg id="Layer_1" data-name="Layer 1" xmlns="http://www.w3.org/2000/svg" viewBox="0 0 526.3 526.09"><title>1.0Help-information</title><path d="M285.23,146.42c145-.19,263,117.65,263.23,263,.25,144.82-117.79,263-262.86,263.07S22.49,555,22.16,409.69C21.83,265,140.07,146.62,285.23,146.42Zm.45,18.49C151,165,40.83,274.63,40.75,408.69,40.67,544,150.3,654,285.29,654.06c134.45,0,244.7-109.91,244.67-244C529.93,275,420.19,164.88,285.68,164.91Z" transform="translate(-22.16 -146.42)"/><path d="M274.46,450.07q0-40.36,0-80.73a23.15,23.15,0,0,1,.48-5.2c1.25-5.39,5.39-8.45,10.91-8.26a10.72,10.72,0,0,1,10.29,8.9,21.08,21.08,0,0,1,.27,3.73q0,80.36,0,160.71a31.58,31.58,0,0,1-.56,6.45,10.82,10.82,0,0,1-21.3-1.37c-.14-1.4-.11-2.83-.11-4.25Z" transform="translate(-22.16 -146.42)"/><path d="M304.57,295a19.29,19.29,0,1,1-19.42-19.3A19.31,19.31,0,0,1,304.57,295Z" transform="translate(-22.16 -146.42)"/></svg>