<svg id="Layer_1" data-name="Layer 1" xmlns="http://www.w3.org/2000/svg" viewBox="0 0 481.62 512.56"><title>1.0Information &amp;amp; contact</title><path d="M281.31,671c-9.75,0-19.51.27-29.24-.05-20.34-.68-35-15.52-35.54-35.85q-.41-15.36-.08-30.74c.19-8.73-3.44-14.5-11.57-17.85A155.44,155.44,0,0,1,169.51,566c-6.91-5.29-13.57-5.61-21-1.12-9,5.43-18,10.79-27.34,15.54-12.13,6.18-24.46,6.57-36.42-.8-6.19-3.81-10.58-9.34-14.17-15.53Q58.24,542.86,46,521.53c-5.62-9.76-8.08-20-4.54-31.14a35,35,0,0,1,15.11-19.85c8.78-5.43,17.81-10.44,26.68-15.72a37.3,37.3,0,0,0,6.49-4.6c4.44-4.15,5-9.54,4.27-15.23-1.91-14.13-1.52-28.25.14-42.37.81-6.82-1.74-12.11-7.6-15.62-8.5-5.08-17.11-10-25.67-15-7.35-4.26-13.71-9.55-17.36-17.41-4.83-10.39-5.59-21.11,0-31.27C53,296,62.82,278.74,73.2,261.88c10.78-17.47,30-22,48.6-12.21,8.61,4.55,17,9.53,25.41,14.42,9.39,5.45,14.88,5.22,23.62-1.33a157.84,157.84,0,0,1,32.79-18.92c.54-.23,1.06-.49,1.6-.7,7.86-3.13,11.3-9,11.22-17.37-.09-10.16-.07-20.32.15-30.48.18-8.43,2.46-16.27,7.76-23,6.39-8.14,14.94-12.91,25.07-13.23,19.31-.61,38.66-.64,58-.32,21.93.37,36.75,14.69,37,39.05.1,8.92.27,17.84,0,26.75-.33,9.47,3.74,15.6,12.45,19.16a144.06,144.06,0,0,1,34.05,19.71c7.26,5.64,14.39,5.82,22.16,1.11,8.47-5.13,17.11-10,25.82-14.71,19.13-10.34,39.28-4.64,50.3,14.18,8.83,15.08,17.39,30.33,26.29,45.37,12.55,21.24,2.89,42-13,51.26-8.42,4.9-16.75,10-25.31,14.6-7.63,4.13-10.77,10.19-10.36,18.8.56,11.57.59,23.16.73,34.74a77.43,77.43,0,0,1-.61,8.72c-.75,7.18,2.15,12.39,8.34,16,9.09,5.23,18.17,10.48,27.19,15.83,9.31,5.52,15.74,13.26,17.82,24.14,1.67,8.8.74,17.25-3.79,25.13-9.13,15.87-18.23,31.76-27.45,47.58-5.63,9.65-13.61,16.33-24.84,18.49-9.35,1.8-18-.36-26.17-5-8.48-4.78-16.9-9.67-25.33-14.55-4.87-2.82-9.93-4.47-15.45-2.21a26.87,26.87,0,0,0-5.81,3.34,164.06,164.06,0,0,1-35.19,20.27c-8.23,3.42-11.94,9.4-11.83,18.3.13,10.83-.07,21.66-.37,32.49-.49,17.87-15.1,32.88-33,33.6-9.9.4-19.83.07-29.74.07Zm-.92-17.64v0c8.91,0,17.83.06,26.75,0,9.07-.08,16.26-5.34,18.56-13.84a37.14,37.14,0,0,0,1.09-9.12c.14-9.66,0-19.33.12-29,.2-13.91,6.84-23.8,19.2-29.95,5.35-2.67,10.92-5,16.07-8,7.09-4.15,13.95-8.73,20.78-13.32,7.88-5.3,16.42-8,25.74-5.65a67.34,67.34,0,0,1,14.6,6.09c8.91,4.65,17.4,10.14,26.46,14.47s17,1.79,22.89-6.5A41.55,41.55,0,0,0,475,555c8.16-14.11,16.35-28.2,24.42-42.36,7.07-12.42,4.46-21.9-7.88-29.22l-1.09-.61c-7.62-4.42-15.19-8.93-22.88-13.23-12.68-7.1-18.69-17.87-18.56-32.35.14-15.48,0-31,.06-46.46a41.24,41.24,0,0,1,.77-7.42c2-10.33,8-17.67,17-22.85,8.78-5.08,17.63-10,26.3-15.3,10.58-6.41,13-15.91,6.95-26.62-8.75-15.39-17.65-30.7-26.53-46a26.45,26.45,0,0,0-3.35-4.64c-3.88-4.17-8.74-6.36-14.36-5a51.16,51.16,0,0,0-12,4.58c-8.8,4.68-17.3,9.95-26.09,14.66-10.62,5.68-21.43,6-31.68-.79a400.49,400.49,0,0,0-42.5-24.55c-10.86-5.41-16.23-14.71-16.53-26.77-.3-11.57,0-23.17-.5-34.73-.5-11.9-7.54-18.67-19.52-18.8q-27.12-.32-54.25.08c-10.48.14-17.22,6.51-17.78,17-.65,12.22-.61,24.48-.95,36.73a33.76,33.76,0,0,1-.74,6.17c-2.05,9.61-7.78,16.41-16.48,20.7a319.23,319.23,0,0,0-40.13,23.17c-10.53,7.25-21.5,7.76-32.73,2-6.29-3.21-12.32-6.91-18.5-10.34-4.87-2.69-9.64-5.62-14.71-7.88-7.74-3.45-14.66-1.8-20.29,4.54a43.74,43.74,0,0,0-5,7.15Q73.63,296.13,62,316.48a42.47,42.47,0,0,0-2.77,5.57c-3.16,8.06-1.41,15,5.21,20.63a44.25,44.25,0,0,0,6,4.1c8,4.76,16.21,9.18,24,14.19,11.82,7.57,19.07,17.6,17.67,32.7-1.35,14.52-.81,29.1,0,43.68.75,12.68-4.49,22.79-15.1,29.94C94.58,469,92,470.45,89.4,472c-7.78,4.64-15.74,9-23.32,14-6,3.89-9.44,9.62-7.95,17a38,38,0,0,0,4.19,10.81q11.42,20.34,23.3,40.41a43.71,43.71,0,0,0,6.67,8.64c3.51,3.53,8,5.31,13,4.07a52.41,52.41,0,0,0,11.77-4.44c8.51-4.53,16.76-9.54,25.19-14.22,12-6.67,23.78-6.28,35.17,1.67a258.63,258.63,0,0,0,38.19,22C228,577.74,234,587.62,234.06,601.3c.05,10.58.3,21.16.53,31.74a30.55,30.55,0,0,0,.67,6.19c2,8.86,8.57,13.9,18.38,14.06C262.56,653.43,271.47,653.32,280.39,653.32Z" transform="translate(-39.59 -158.52)"/><path d="M280.6,514.67c-54.71.25-99.61-44.69-99.81-99.9-.2-54.63,44.54-99.32,99.56-99.46A99.23,99.23,0,0,1,380,414.76C380.2,469.69,335.68,514.42,280.6,514.67ZM362.17,415c0-45-36.81-81.78-81.7-81.75-44.64,0-81.61,36.91-81.62,81.39,0,45,36.73,81.85,81.62,81.84S362.19,459.69,362.17,415Z" transform="translate(-39.59 -158.52)"/></svg>