<svg id="Layer_1" data-name="Layer 1" xmlns="http://www.w3.org/2000/svg" viewBox="0 0 491.22 511.88"><title>1.0Profile</title><path d="M390.92,694.26H376.67q-129.1.07-258.21.14c-10.23,0-20.3-1-29.85-5-19.75-8.23-36.83-26.35-37.14-53-.24-20.25,6.5-38.18,17.76-54.66,16-23.42,37.13-40.95,62.27-53.85,26.76-13.72,55.18-22.18,84.75-27.1a492.08,492.08,0,0,1,93.1-6.36c33.46.82,66.64,4.08,99.08,12.88,24.7,6.7,48.36,15.89,70,29.83,20.17,13,37.1,29.31,49.54,50,8.21,13.64,13.7,28.39,14.63,44.39,1,18.12-5.84,33.35-18.68,45.93-11.36,11.13-25.41,16-41,16.33-20.24.42-40.49.32-60.74.41-10.41,0-20.83,0-31.24,0Zm-92.09-23v-.39H480.54a43.65,43.65,0,0,0,14.93-2.39,36.32,36.32,0,0,0,23.65-37.42,72.65,72.65,0,0,0-7.69-24.84c-8.55-17.22-21.4-30.82-36.55-42.35-20.46-15.58-43.75-25.33-68.23-32.5-30.36-8.89-61.55-12.31-93-13.35a464.59,464.59,0,0,0-93,5.84,290.81,290.81,0,0,0-57.28,15.55c-24.43,9.53-46.37,22.8-64.14,42.4C86.64,595.64,77.45,611.1,74.85,630a35.6,35.6,0,0,0,20.83,37.36c7.33,3.24,15.07,3.92,22.92,3.92Q208.72,671.3,298.83,671.28Z" transform="translate(-51.47 -182.52)"/><path d="M297.42,182.52c73.33,0,133.23,60.28,133.18,134S370.84,450,297.12,450.21c-73.52.25-134.18-60.36-134.14-134S223.38,182.51,297.42,182.52Zm-111,133.66C186.37,377,236,426.79,296.73,426.88s110.65-49.61,110.76-110.31S357.85,206,297.11,205.9,186.49,255.41,186.43,316.18Z" transform="translate(-51.47 -182.52)"/></svg>