<svg id="Layer_1" data-name="Layer 1" xmlns="http://www.w3.org/2000/svg" viewBox="0 0 422.47 527.79"><title>1.0Queried-return</title><path d="M479.45,453.89q0,87.38,0,174.74c0,14.1-2.61,27.58-10.64,39.42-14.08,20.76-33.84,30.58-58.95,30.54q-132.24-.21-264.48-.05c-7.83,0-15.66.05-23.49-.1a65.78,65.78,0,0,1-64.29-58.18,85.48,85.48,0,0,1-.52-9.73Q57,456.29,57,282.06c0-17,4.38-32.44,15.78-45.41,12.91-14.7,29.06-22.77,48.76-23.24,6.33-.16,12.67-.09,19,0,1.65,0,2.26-.49,2.61-2.13,1.54-7.35,3.41-14.6,7.67-21,8.34-12.48,20.14-19.14,35-19.33,26.91-.33,53.83-.14,80.74-.14,27.17,0,54.33,0,81.5.05,15.39,0,28,5.92,37.06,18.62,4.3,6,6.44,12.86,7.45,20.16.66,4.79-.14,3.8,4.4,3.93,8.74.23,17.62-.46,26.18.91,25.76,4.12,43.26,18.85,52.45,43.32,2.84,7.59,3.74,15.54,3.74,23.56q.08,86.25,0,172.49Zm-403.8,2.57q0,86.13,0,172.25c0,7.49.35,15,3.63,22q14,29.64,46.74,29.69,141.89,0,283.75,0a55.74,55.74,0,0,0,11.4-1.05c17.75-3.77,30.22-14,36.58-31.14,2.49-6.72,2.83-13.79,2.82-20.89q0-126.24-.07-252.49,0-46.87,0-93.75c0-9.56-1.9-18.69-7.25-26.81-7.69-11.67-18.12-19.52-32.21-21.29-8.07-1-16.27-1-24.41-1.4-2.56-.13-3.55,1.31-4.14,3.68-1.2,4.8-2,9.88-4.25,14.22-8.33,16.43-22,24.57-40.46,24.57Q269.9,274,192,274a85,85,0,0,1-10.46-.57c-13.52-1.69-24-8.24-31.27-19.86-3.63-5.8-5.44-12.27-6.73-18.89-.41-2.16-1.45-2.9-3.56-2.87-5.74.1-11.5-.12-17.24.14-19.7.92-34,10.29-42.76,27.94-3.94,7.91-4.31,16.51-4.32,25.09Q75.61,370.72,75.65,456.46Zm192.6-200.57h0c22.83,0,45.65,0,68.47,0a134.47,134.47,0,0,0,16.69-.6c10.33-1.33,18.82-9.34,19.85-19.24a185.86,185.86,0,0,0,.51-24.19c-.16-5.82-2.77-10.87-6.91-15.06-5.79-5.86-13-7.54-20.94-7.53q-73.47.09-147,0c-5.56,0-11.2-.12-16.67.71-11.7,1.78-19.71,11.58-19.78,23.38,0,6.25-.07,12.5,0,18.74a22.34,22.34,0,0,0,.81,5.64c3.11,11,12.79,18.09,24.67,18.11Q228.14,255.95,268.25,255.89Z" transform="translate(-56.99 -170.8)"/><path d="M170.28,382c-6.61-.27-12.4-2.69-16.47-8.44-5.24-7.4-10.48-14.81-15.62-22.28-3.13-4.55-2.44-9.6,1.51-12.69,4.38-3.41,10.18-3.07,13.59,1.35,4.47,5.8,8.5,11.93,12.72,17.91.76,1.09,1.5,2.21,2.32,3.25,2,2.58,3.15,2.65,5.34.11,3.36-3.91,6.62-7.92,9.92-11.89q15.72-18.92,31.47-37.81c3.53-4.21,8.18-5.29,12.48-3.17,5.56,2.73,7,9.19,3,14.34-4.68,6-9.55,11.76-14.38,17.6Q203.09,356,190,371.81C184.94,377.91,178.7,381.79,170.28,382Z" transform="translate(-56.99 -170.8)"/><path d="M169,491.91a17.62,17.62,0,0,1-14.16-7.33c-5.77-7.85-11.34-15.83-16.85-23.86a8.71,8.71,0,0,1,1.77-12.26,9.5,9.5,0,0,1,12.93.64,52,52,0,0,1,4.72,6.11c3.5,5,6.88,10,10.39,15,2.53,3.58,3.63,3.66,6.44.29q16.74-20,33.36-40.16c2.71-3.27,5.38-6.58,8.22-9.73a9.5,9.5,0,0,1,10.21-3,9.23,9.23,0,0,1,6.74,7.62c.61,3.06-.68,5.55-2.54,7.79q-13,15.8-26.13,31.55-7.91,9.51-15.87,19C183.42,489.2,177.23,491.74,169,491.91Z" transform="translate(-56.99 -170.8)"/><path d="M318.76,566.86q25.49,0,51,0a32.91,32.91,0,0,1,6.19.55,8.42,8.42,0,0,1,.09,16.42,27.2,27.2,0,0,1-5.7.55q-51.6,0-103.22,0a28.35,28.35,0,0,1-5.2-.49,8.42,8.42,0,0,1-.33-16.5,24.77,24.77,0,0,1,5.44-.51Q292.9,566.82,318.76,566.86Z" transform="translate(-56.99 -170.8)"/><path d="M318.8,469.94c-17,0-34,0-51,0a30.81,30.81,0,0,1-6.44-.58,8.43,8.43,0,0,1,.27-16.42,26.72,26.72,0,0,1,5.2-.5q51.6,0,103.19,0a31.31,31.31,0,0,1,5.46.49,8.18,8.18,0,0,1,6.9,7.75,8.48,8.48,0,0,1-6.21,8.63,26.09,26.09,0,0,1-6.18.62C353,470,335.87,469.94,318.8,469.94Z" transform="translate(-56.99 -170.8)"/><path d="M319.26,359.88q-25.23,0-50.46,0a50.09,50.09,0,0,1-6.7-.49,8.1,8.1,0,0,1-7.11-7.78,8.44,8.44,0,0,1,6.58-8.58,25.29,25.29,0,0,1,5.2-.54q52.1,0,104.17,0a24,24,0,0,1,4,.38c4.76.82,7.79,4.35,7.57,8.73a8.94,8.94,0,0,1-8.51,8.28c-.66,0-1.33.06-2,.06H319.26Z" transform="translate(-56.99 -170.8)"/></svg>