<svg id="Layer_1" data-name="Layer 1" xmlns="http://www.w3.org/2000/svg" viewBox="0 0 525.94 526.06"><title>1.0submitted-returns</title><path d="M38.4,436.05q0-82.38,0-164.74c0-12.84,1.61-25.36,8.16-36.61,12.61-21.63,31.33-34.08,56.63-34.2,70.16-.36,140.32-.18,210.49-.19,23.16,0,46.33.06,69.49,0,12.08,0,23.91,1.5,34.39,7.85,17.87,10.81,29.9,26,33.23,47.16a67.64,67.64,0,0,1,.71,10.45q.07,78.38,0,156.74a22.2,22.2,0,0,1-1.74,7.92c-1.23,3.12-3.88,4.69-7.35,4.54-3.62-.16-6.57-1.59-7.88-5.1a19.73,19.73,0,0,1-1.37-6.76c-.08-52.33.08-104.66-.15-157-.12-27-21-47.25-48.16-47.28q-65.87-.07-131.74,0-73.62,0-147.24.05c-18.06,0-32.08,7.76-42.05,22.69a38.15,38.15,0,0,0-6.23,21.29q-.36,46.24-.48,92.49-.11,123.75,0,247.48c0,20.84,11.81,38.15,30.52,45.36a46.53,46.53,0,0,0,16.86,3.08q83.74.06,167.49.08a56.44,56.44,0,0,1,8.22.5,8.3,8.3,0,0,1,7,8.19c.19,4.48-2.34,8.26-6.45,9.22a28,28,0,0,1-6.2.61q-70.11.06-140.23,0c-10,0-20,.09-30-.06-32.08-.47-57.81-21.59-64.46-53A58.71,58.71,0,0,1,38.55,605q-.12-84.48,0-169Z" transform="translate(-38.38 -200.28)"/><path d="M428.45,726.33c-74.74.23-136.31-61.28-136.42-136.28-.11-74.6,61-135.74,136.07-136,74.64-.31,135.79,60.66,136.22,135.81C564.74,664.43,503.36,726.1,428.45,726.33Zm-.16-253.83c-64.35-.18-117.57,52.77-117.75,117.17-.19,64.66,52.66,117.89,117.34,118.18s117.56-52.54,118-117.51C546.22,525.8,493.25,472.69,428.29,472.5Z" transform="translate(-38.38 -200.28)"/><path d="M245.25,331.68H225.5q-39.37,0-78.75,0a35.58,35.58,0,0,1-7.92-.76c-4.37-1-6.64-4.69-6.35-9.47a8.56,8.56,0,0,1,7.37-8,44.75,44.75,0,0,1,6.23-.4q98.88,0,197.75,0a44.37,44.37,0,0,1,6,.39,8.86,8.86,0,0,1,7.8,8.68,8.6,8.6,0,0,1-7.39,9,50.48,50.48,0,0,1-8,.48q-46.87.06-93.75,0h-3.25Z" transform="translate(-38.38 -200.28)"/><path d="M244.25,411.69q49.37,0,98.74,0a40,40,0,0,1,8.17.77,8.33,8.33,0,0,1,6.62,8.31,8.44,8.44,0,0,1-6.74,8.73,32.17,32.17,0,0,1-6.93.73q-99.1.06-198.23,0a40.16,40.16,0,0,1-5.47-.41c-5.13-.68-8.11-4.3-7.92-9.48a8.75,8.75,0,0,1,8.53-8.47c2.57-.17,5.16-.21,7.74-.21Q196.51,411.67,244.25,411.69Z" transform="translate(-38.38 -200.28)"/><path d="M203,528.82q-29.73,0-59.47,0a19,19,0,0,1-4.45-.49c-4.29-1-6.79-4.45-6.69-9a8.51,8.51,0,0,1,7.13-8.41,40.64,40.64,0,0,1,6.7-.54q57.1,0,114.19,0a24.63,24.63,0,0,1,5.69.55c4.67,1.14,7.17,4.75,6.9,9.62-.23,4.26-3.19,7.36-7.8,8.06a24.48,24.48,0,0,1-3.73.2q-29.24,0-58.47,0Z" transform="translate(-38.38 -200.28)"/><path d="M419,556.55c-1.93,1.82-3.4,3.14-4.8,4.53q-16.38,16.32-32.75,32.65a38.12,38.12,0,0,1-4.49,3.95,8.73,8.73,0,0,1-11.43-1,8.58,8.58,0,0,1-1.33-11.36,29,29,0,0,1,3.7-4.37q25.33-25.41,50.72-50.73a40.45,40.45,0,0,1,4.92-4.24,7.47,7.47,0,0,1,9.3,0,46.76,46.76,0,0,1,5.28,4.57q24.82,24.82,49.58,49.75a32.81,32.81,0,0,1,4.78,6,7.72,7.72,0,0,1-1.26,10.23c-3.28,3.13-7.66,3.75-11.2,1.4a26.79,26.79,0,0,1-4-3.41q-18.5-18.61-36.94-37.29c-.23-.23-.48-.43-1.2-1.09-.15,2.08-.37,3.74-.37,5.39q0,40,0,80a45.77,45.77,0,0,1-.42,6.72,8.41,8.41,0,0,1-8.21,7.33,8.8,8.8,0,0,1-9.25-6.47,30.9,30.9,0,0,1-.59-6.94q-.06-41.12,0-82.23Z" transform="translate(-38.38 -200.28)"/></svg>