<svg id="Layer_1" data-name="Layer 1" xmlns="http://www.w3.org/2000/svg" viewBox="0 0 575.29 480.36"><title>Upload return</title><path d="M220.3,255.14c5.42-6.85,10.28-13.75,15.9-20a148.89,148.89,0,0,1,70.43-44.12c55.7-15.91,106.79-6.38,151.86,30.39,25.09,20.48,41.17,47.08,48.18,78.88a129.88,129.88,0,0,1,2.13,43.47c-.21,1.75.16,2.46,1.78,3.1a119,119,0,0,1,49.61,36,109.16,109.16,0,0,1,24.36,56.29c6.06,47.39-19.26,90.93-59.68,113.4a129,129,0,0,1-62.64,16.27c-15.17.12-30.33,0-45.5,0a15.31,15.31,0,0,1-3.7-.46,9.5,9.5,0,0,1-7.32-9.51,9.71,9.71,0,0,1,8.64-8.94,35.77,35.77,0,0,1,3.74-.11c17.41-.15,34.88.52,52.23-.57,43.55-2.73,82.74-32.82,92.4-75.95,6.58-29.39-.18-56-19.16-79.37-11.5-14.15-26.13-24.08-43.19-30.44-5.83-2.17-10-6-11.67-12.05a16.51,16.51,0,0,1-.47-6.41c4.51-35-4.79-66.12-27.16-93.09-23.36-28.16-53.79-44-90-48-41-4.59-77.48,6.55-109,33.34-9.64,8.2-18,17.65-24.13,28.78s-17.25,12.08-26.08,6.74c-29.43-17.83-69.18-13.53-94.53,9.68C101.45,297,93.14,315,93.57,336.73a87.61,87.61,0,0,0,1.52,12.13,17.36,17.36,0,0,1-8.35,18.06c-6.26,3.79-12.86,7.15-18.64,11.57-20.85,16-33.79,36.91-36.93,63.12-3.59,29.93,5.79,55.81,26.94,77.13,20.94,21.12,46.82,30.81,76.36,31,14.5.11,29,0,43.5,0a18.2,18.2,0,0,1,5.16.62,9.32,9.32,0,0,1,6.66,9,9.54,9.54,0,0,1-6.93,8.83,16.94,16.94,0,0,1-4.44.56c-14.83,0-29.66.14-44.5,0C101,568.52,71.79,558,47.32,535.71c-20.35-18.55-33-41.47-36.3-69-4.38-37,8-68.28,34.15-94.36a109,109,0,0,1,27.91-20c1.28-.65,1.79-1.28,1.49-2.86-8.21-44,20.09-87.21,64.6-101.47,27.58-8.84,54.52-6.86,80.35,6.76C219.88,255,220.26,255.13,220.3,255.14Z" transform="translate(-10.15 -183.65)"/><path d="M307.16,402.11v3.58q0,124.24.1,248.5A9.61,9.61,0,0,1,293.5,663a8.53,8.53,0,0,1-5.17-8.14q0-12.25,0-24.5V402c-1.11,1-1.89,1.65-2.64,2.35Q246.56,441,207.44,477.72c-3,2.81-6.31,4-10.24,3.1a8.54,8.54,0,0,1-6.63-6.47c-.86-3.39.39-6.19,2.89-8.53q18.16-17,36.3-34,26.81-25.12,53.63-50.25c8.49-8,20.07-8.06,28.54-.13q44.61,41.77,89.22,83.56c2.05,1.92,3.89,3.94,4,6.93a8.27,8.27,0,0,1-5,8.21c-3.78,1.78-7.55,1.49-10.74-1.3-4-3.51-7.84-7.24-11.73-10.88L309.4,404C308.81,403.46,308.18,403,307.16,402.11Z" transform="translate(-10.15 -183.65)"/></svg>